<svg width="35" height="44" viewBox="0 0 35 44" fill="none" xmlns="http://www.w3.org/2000/svg">
<path d="M1.92329 40.4535C1.09498 40.4673 0.434668 41.1499 0.44845 41.9782C0.462231 42.8065 1.14488 43.4669 1.9732 43.4531L1.92329 40.4535ZM20.275 0.55625C19.4777 0.331513 18.6491 0.795717 18.4244 1.59308L14.7621 14.5868C14.5373 15.3842 15.0015 16.2128 15.7989 16.4375C16.5962 16.6622 17.4248 16.198 17.6496 15.4007L20.9049 3.85067L32.4549 7.10605C33.2523 7.33078 34.0809 6.86658 34.3056 6.06922C34.5303 5.27186 34.0661 4.44328 33.2688 4.21855L20.275 0.55625ZM1.9732 43.4531C11.8973 43.288 20.4795 39.4023 24.6577 31.9624C28.8459 24.5047 28.3139 14.0063 21.1767 1.26685L18.5595 2.73315C25.4223 14.9828 25.5193 24.3015 22.0419 30.4934C18.5546 36.7031 11.1769 40.2995 1.92329 40.4535L1.9732 43.4531Z" fill="#E15544"/>
</svg>
