<svg width="27" height="60" viewBox="0 0 27 60" fill="none" xmlns="http://www.w3.org/2000/svg">
<path d="M25.1844 3.48127C26.0025 3.35075 26.5598 2.58176 26.4293 1.76368C26.2988 0.945596 25.5298 0.388216 24.7117 0.518733L25.1844 3.48127ZM17.0597 59.4923C17.8839 59.576 18.6198 58.9757 18.7035 58.1515L20.0671 44.7206C20.1508 43.8964 19.5505 43.1604 18.7263 43.0767C17.9021 42.993 17.1661 43.5933 17.0825 44.4175L15.8704 56.3562L3.93175 55.1441C3.10756 55.0604 2.37159 55.6607 2.28791 56.4849C2.20423 57.3091 2.80454 58.045 3.62873 58.1287L17.0597 59.4923ZM24.7117 0.518733C15.539 1.98216 9.27098 5.16538 5.39587 9.60696C1.50458 14.0671 0.197958 19.5984 0.5571 25.3866C1.2685 36.8522 8.52406 49.7227 16.0488 58.9481L18.3736 57.0519C10.9985 48.0101 4.20522 35.7392 3.55134 25.2008C3.22785 19.9871 4.40949 15.3008 7.65644 11.5792C10.9196 7.83906 16.4398 4.87639 25.1844 3.48127L24.7117 0.518733Z" fill="#E15544"/>
</svg>
