<svg width="35" height="60" viewBox="0 0 35 60" fill="none" xmlns="http://www.w3.org/2000/svg">
<path d="M8.29755 1.62214C8.08887 0.820433 7.26978 0.339688 6.46807 0.548371C5.66636 0.757055 5.18561 1.57614 5.39429 2.37786L8.29755 1.62214ZM14.4234 9.46345L13.7797 10.8183L13.8778 10.8649L13.9816 10.8969L14.4234 9.46345ZM26.4231 3.81032L26.0341 2.36165V2.36165L26.4231 3.81032ZM26.4231 30.7458L24.9375 30.5387L26.4231 30.7458ZM5.39943 58.5426C5.69911 59.3149 6.56813 59.6981 7.34046 59.3984L19.9262 54.5149C20.6986 54.2153 21.0817 53.3462 20.782 52.5739C20.4824 51.8016 19.6133 51.4184 18.841 51.7181L7.65366 56.059L3.3128 44.8716C3.01312 44.0993 2.14409 43.7161 1.37177 44.0158C0.599443 44.3155 0.216284 45.1845 0.515958 45.9568L5.39943 58.5426ZM5.39429 2.37786C6.65927 7.23758 10.2726 9.15227 13.7797 10.8183L15.067 8.10856C11.5741 6.44926 9.18684 5.03857 8.29755 1.62214L5.39429 2.37786ZM13.9816 10.8969C17.6486 12.0271 20.8483 12.5017 23.5748 12.5088L23.5826 9.50883C21.1954 9.50264 18.2921 9.08618 14.8652 8.02999L13.9816 10.8969ZM23.5748 12.5088C26.8267 12.5172 29.4332 11.8597 31.3404 10.8278C33.2119 9.81531 34.5492 8.35357 34.9101 6.70527C35.0949 5.86146 35.0134 4.98223 34.601 4.18912C34.1907 3.39988 33.5095 2.80388 32.6767 2.41425C31.0508 1.65362 28.7713 1.62651 26.0341 2.36165L26.8122 5.25898C29.2232 4.61145 30.6898 4.79679 31.4054 5.13157C31.7433 5.28965 31.8816 5.4621 31.9393 5.57305C31.995 5.68012 32.0301 5.8328 31.9795 6.06362C31.8698 6.56457 31.3293 7.42294 29.9129 8.18925C28.5323 8.93621 26.441 9.51623 23.5826 9.50883L23.5748 12.5088ZM26.0341 2.36165C24.0078 2.90586 22.7313 4.13986 22.17 5.89048C21.6585 7.48559 21.7863 9.37618 22.099 11.2551L25.0583 10.7626C24.7602 8.9715 24.7456 7.68307 25.0267 6.80654C25.2579 6.08552 25.7091 5.55525 26.8122 5.25898L26.0341 2.36165ZM22.099 11.2551C22.3333 12.6624 22.6958 14.1897 23.0785 15.7523C23.4653 17.3319 23.8749 18.9559 24.2281 20.6275C24.9359 23.978 25.38 27.3636 24.9375 30.5387L27.9088 30.9528C28.4239 27.2567 27.8933 23.463 27.1633 20.0074C26.7975 18.276 26.3724 16.5903 25.9924 15.0386C25.6082 13.47 25.2717 12.0444 25.0583 10.7626L22.099 11.2551ZM24.9375 30.5387C24.2879 35.1999 21.0548 38.7765 16.9293 42.8712C12.9149 46.8557 8.12726 51.2668 5.42534 57.3949L8.17037 58.6052C10.594 53.1082 14.8902 49.1219 19.0427 45.0005C23.084 40.9892 27.1007 36.7512 27.9088 30.9528L24.9375 30.5387Z" fill="#E15544"/>
</svg>
