<svg width="59" height="58" viewBox="0 0 59 58" fill="none" xmlns="http://www.w3.org/2000/svg">
<path d="M1.4981 4.00507C1.4981 2.62261 2.61596 1.5019 3.99492 1.5019L54.7631 1.5019C56.1421 1.5019 57.2599 2.62261 57.2599 4.00507L57.2599 53.9949C57.2599 55.3774 56.1421 56.4981 54.7631 56.4981L3.99493 56.4981C2.61596 56.4981 1.4981 55.3774 1.4981 53.9949L1.4981 4.00507Z" fill="#E15544" stroke="#E15544" stroke-width="3"/>
<path d="M26.6805 37.6883C26.6805 36.6088 26.7039 35.6936 26.7507 34.9426C26.8131 34.1917 26.9458 33.5111 27.1486 32.901C27.3515 32.3065 27.6558 31.7589 28.0615 31.2583C28.4673 30.742 29.0369 30.1945 29.7703 29.6156C30.3009 29.1306 30.8314 28.6222 31.362 28.0902C31.8926 27.5427 32.3764 26.9794 32.8133 26.4006C33.2346 25.8374 33.578 25.2585 33.8432 24.664C34.1085 24.0695 34.2412 23.475 34.2412 22.8805C34.2412 22.1609 34.1397 21.5429 33.9369 21.0266C33.734 20.4947 33.4453 20.0566 33.0708 19.7124C32.6807 19.3995 32.2047 19.1649 31.6429 19.0084C31.0967 18.852 30.4647 18.7738 29.7469 18.7738C29.1851 18.7738 28.6389 18.852 28.1083 19.0084C27.5778 19.1492 27.1096 19.3839 26.7039 19.7124C26.2825 20.041 25.9392 20.4634 25.6739 20.9797C25.4243 21.4959 25.2916 22.1139 25.276 22.8336L18.7452 22.8336C18.7608 21.2378 19.0573 19.8532 19.6347 18.6799C20.2121 17.4909 20.9924 16.5053 21.9755 15.723C22.9586 14.9408 24.1134 14.3619 25.4399 13.9864C26.7663 13.5953 28.202 13.3998 29.7469 13.3998C31.4791 13.3998 33.0318 13.5953 34.405 13.9864C35.7783 14.3776 36.9409 14.9564 37.8928 15.723C38.8291 16.5053 39.5469 17.4674 40.0463 18.6095C40.5457 19.7516 40.7953 21.0735 40.7953 22.5754C40.7953 23.6862 40.6081 24.7031 40.2336 25.6262C39.859 26.5336 39.3753 27.3784 38.7823 28.1606C38.1893 28.9585 37.5105 29.7173 36.7458 30.4369C35.9968 31.141 35.2399 31.8293 34.4753 32.5021C34.0071 32.9714 33.6404 33.386 33.3751 33.7458C33.1098 34.1057 32.9225 34.4733 32.8133 34.8488C32.6885 35.2243 32.6104 35.6388 32.5792 36.0925C32.548 36.5306 32.5324 37.0625 32.5324 37.6883L26.6805 37.6883ZM25.7208 44.7989C25.7208 43.7663 26.0563 42.9058 26.7273 42.2175C27.3983 41.5135 28.3268 41.1615 29.5128 41.1615C30.6676 41.1615 31.5883 41.5135 32.2749 42.2175C32.9772 42.9058 33.3283 43.7663 33.3283 44.7989C33.3283 45.8001 32.9772 46.645 32.2749 47.3333C31.5883 48.0061 30.6676 48.3424 29.5128 48.3424C28.3268 48.3424 27.3983 48.0061 26.7273 47.3333C26.0563 46.645 25.7208 45.8001 25.7208 44.7989Z" fill="#02F4BF"/>
</svg>
