<svg width="60" height="60" viewBox="0 0 60 60" fill="none" xmlns="http://www.w3.org/2000/svg">
<g clip-path="url(#clip0_3418_3135)">
<path d="M52.9508 46.4452C52.7538 46.0846 52.5131 45.6687 52.1675 45.3032C51.649 44.759 51.3308 44.0703 51.1354 43.0696C50.9303 42.0121 50.5459 40.7694 49.4476 39.923C50.1502 36.7748 49.6947 33.6396 48.0408 30.1438C46.7503 27.4195 44.909 25.1177 43.1275 22.8922L42.7576 22.4292C41.136 20.397 40.4173 18.2625 40.4964 15.7104C40.5643 13.5467 40.3931 11.3114 39.9844 9.06802C39.2948 5.28141 37.0449 2.84147 33.6466 2.19981C32.9424 2.06823 32.1688 2 31.3499 2C30.699 2 29.9964 2.04224 29.2599 2.12671C25.453 2.56044 22.8171 5.03124 22.2082 8.73663C21.89 10.6811 21.806 12.7897 21.9594 15.007C22.2179 18.7498 21.3602 21.6755 19.2557 24.2145C18.1283 25.5758 17.0575 27.132 15.8833 29.1122C14.3586 31.6838 12.6562 35.1601 12.9292 39.3447C12.8064 39.4958 12.6901 39.6452 12.5755 39.7931C11.9068 40.6459 11.3786 41.3184 10.4774 41.5832C7.97392 42.3142 6.93861 44.067 7.39731 46.7896C7.57982 47.8731 7.54752 48.7211 7.29556 49.5398C6.85786 50.9547 6.90631 52.087 7.44092 53.0032C7.98684 53.9356 8.98823 54.5448 10.5016 54.8648C10.8101 54.9298 11.1202 54.9785 11.4222 55.0126C13.7416 55.2677 15.5134 55.6007 17.1786 56.4665C18.2592 57.0269 19.485 57.2332 20.3136 57.3372C20.7012 57.3876 21.0776 57.4119 21.4313 57.4119C23.4211 57.4119 24.9701 56.6436 26.0393 55.1279C26.4156 55.0873 26.792 55.0435 27.1683 55.0012C28.735 54.8242 30.355 54.639 31.933 54.5643C32.0105 54.5594 32.0896 54.5578 32.1688 54.5578C32.6937 54.5578 33.2477 54.6325 33.8356 54.7121C34.2701 54.7706 34.7191 54.8307 35.1794 54.8648C36.1356 56.8596 37.9171 58 40.091 58C40.322 58 40.5594 57.987 40.7969 57.961C42.8029 57.745 44.5892 56.7589 46.1074 55.0305C46.9392 54.0834 47.9875 53.3037 49.3103 52.649L49.4185 52.5954C50.2002 52.2088 51.0094 51.8076 51.7814 51.3056C53.5759 50.1344 54.0023 48.3621 52.9508 46.4452ZM51.0772 50.214C50.3375 50.698 49.5332 51.0895 48.7385 51.4843C47.3737 52.1601 46.1607 53.008 45.1384 54.1711C43.9528 55.5194 42.4976 56.4698 40.658 56.6696C38.6907 56.8807 37.1063 56.0019 36.289 54.1809C36.0887 53.7374 35.8674 53.6042 35.399 53.5766C34.22 53.5067 33.0393 53.2095 31.8716 53.2663C29.7315 53.3687 27.6011 53.6546 25.4708 53.8836C25.3448 53.8966 25.2027 54.0461 25.1251 54.1679C24.0188 55.9093 22.339 56.2846 20.4751 56.049C19.5545 55.9321 18.5854 55.7339 17.7714 55.3115C15.8074 54.2914 13.7061 53.9567 11.5628 53.7212C11.2963 53.6903 11.0298 53.6481 10.7681 53.5928C8.5796 53.1315 7.86893 52.0593 8.52953 49.9248C8.88001 48.7877 8.86063 47.7042 8.67166 46.5736C8.33248 44.5625 8.90747 43.3945 10.8376 42.8308C12.4656 42.3548 13.1876 41.0293 14.1518 39.8986C14.2391 39.7963 14.2439 39.5916 14.2326 39.4389C13.9419 35.8684 15.2372 32.7396 16.9929 29.7783C17.9684 28.1327 19.0328 26.5147 20.249 25.0462C22.7105 22.0751 23.5116 18.7092 23.2483 14.9177C23.111 12.9391 23.1627 10.9004 23.4841 8.94781C24.0058 5.76062 26.2073 3.78203 29.4053 3.41815C30.7248 3.26708 32.1138 3.23296 33.4092 3.47826C36.5571 4.07119 38.1723 6.32756 38.7133 9.30195C39.0929 11.3894 39.2722 13.5515 39.2059 15.6698C39.1155 18.5695 39.9796 21.024 41.7498 23.2431C43.6347 25.605 45.5631 27.9345 46.873 30.7026C48.3541 33.8313 49.005 37.0412 47.9455 40.5549C49.2311 41.0634 49.6398 42.1485 49.8675 43.3198C50.0807 44.4065 50.4586 45.3861 51.2323 46.2015C51.4697 46.4517 51.6522 46.7652 51.8202 47.0723C52.539 48.3832 52.3225 49.4034 51.0772 50.214Z" fill="#02F4BF"/>
<path d="M29.9237 13.3144C30.0126 12.8709 30.166 12.4225 30.3792 12.0262C31.379 10.1662 33.5594 10.1304 34.6416 11.9368C35.504 13.3777 35.3926 15.2231 34.3201 16.5324C33.8937 16.3554 33.5029 16.1929 33.2348 16.0808C33.301 15.2962 33.4431 14.6091 33.3931 13.9349C33.3494 13.3339 33.0506 12.7198 32.3287 12.7166C31.6552 12.7117 31.3983 13.2949 31.2417 13.8537C31.1415 14.2095 31.1448 14.5944 31.1028 14.9681C29.8349 14.713 29.6831 14.523 29.9237 13.3144Z" fill="#02F4BF"/>
<path d="M24.9928 11.5649C25.5678 11.0158 26.2736 10.9589 26.8793 11.4641C27.7805 12.2179 28.0842 13.251 27.9517 14.3654C27.9162 14.6546 27.3929 14.8836 26.9665 15.2491C26.8583 14.5929 26.8421 13.537 26.0087 13.3177C25.3853 13.1552 25.2706 14.1396 25.2625 14.5392C25.2577 14.7732 25.6873 16.1637 25.5694 16.2579C25.5532 16.2709 25.3756 16.4171 25.2044 16.5584C23.8929 15.4522 23.7976 12.7085 24.9944 11.5649H24.9928Z" fill="#02F4BF"/>
<path d="M34.0137 16.7923C32.917 16.2952 31.83 15.7705 30.7204 15.3043C30.1842 15.0785 29.606 14.9566 29.0455 14.7893C28.049 14.8624 27.264 15.2864 26.5469 15.8972C26.0575 16.3163 25.5617 16.7305 25.048 17.1188C23.7753 18.0805 23.7592 18.9398 25.0287 19.9453C25.5746 20.3807 26.1657 20.7592 26.6955 21.2124C27.9876 22.3203 29.2619 22.499 30.777 21.7274C31.7315 21.2417 32.686 20.7527 33.6277 20.2426C33.9313 20.0769 34.222 19.869 34.4756 19.6318C35.6321 18.5483 35.4463 17.4437 34.0137 16.7923ZM28.2993 20.5464C26.7504 20.4181 25.6553 19.4742 24.6992 18.3631C24.7476 18.2933 24.7961 18.2218 24.8461 18.1519C25.0884 18.3647 25.3339 18.5743 25.5746 18.7904C27.4175 20.4538 28.8646 20.6585 31.0822 19.5327C31.7525 19.1932 32.3856 18.7822 33.0462 18.4248C33.3531 18.2575 33.6874 18.1422 34.0089 18.0041C34.0395 18.087 34.0718 18.1698 34.1025 18.2527C32.2193 19.1477 30.609 20.7381 28.2993 20.5464Z" fill="#02F4BF"/>
<path d="M24.5405 53.8803C23.8331 55.1425 22.5959 55.3959 20.8128 55.5015C20.1199 55.3082 18.9085 55.1571 17.8764 54.6405C15.9254 53.6658 13.8693 53.2906 11.7486 53.0859C11.5338 53.0664 11.3222 53.0323 11.1106 52.9917C9.04646 52.5921 8.55868 51.8854 9.22089 49.8955C9.62791 48.669 9.46962 47.501 9.30165 46.2989C9.08199 44.7232 9.49385 43.9321 10.9992 43.4496C12.2977 43.0321 13.2264 42.2556 14.0082 41.1575C15.3326 39.2991 16.8395 39.2423 18.2738 41.021C18.978 41.8934 19.4706 42.9347 20.0747 43.8915C20.963 45.2999 21.8513 46.7083 22.7655 48.1004C23.2387 48.8201 23.7879 49.491 24.2627 50.2106C25.0299 51.3737 25.248 52.6164 24.5405 53.8803Z" fill="#02F4BF"/>
<path d="M36.4346 49.1338C33.2204 51.2489 29.8399 52.0562 26.1186 50.5048C24.7974 49.9525 24.1465 48.8398 23.3971 47.7758C23.4617 47.7059 23.4908 47.6442 23.5328 47.6328C25.0849 47.2186 25.542 46.3365 24.6731 44.9492C24.027 43.9177 23.1193 43.034 22.2455 42.1681C21.7174 41.6434 21.0439 41.2601 20.4139 40.8474C17.8685 39.1726 17.0431 37.2996 17.5891 34.2814C18.0187 31.9015 19.1784 29.845 20.4123 27.8258C20.4786 27.8566 20.5432 27.8859 20.6078 27.9167C20.2928 28.5535 19.9859 29.1952 19.6613 29.8271C18.7051 31.6806 18.0042 33.6088 18.29 35.7336C18.4015 36.5719 18.7617 37.376 19.0088 38.1963C19.0863 38.172 19.1654 38.1476 19.243 38.1216C19.4174 37.0933 19.482 36.0309 19.7905 35.0449C20.296 33.4269 20.9017 31.8333 21.5736 30.2771C22.7494 27.5496 24.0416 24.8709 24.6117 21.9241C24.707 21.4254 24.7732 20.9218 24.8798 20.2558C25.471 20.7041 25.9733 21.0485 26.4336 21.4433C27.8791 22.686 29.2407 22.9102 30.8914 22.0508C32.3563 21.2889 33.7841 20.4572 35.1957 19.6726C35.8143 21.4059 36.4023 23.2903 37.1565 25.1032C38.0788 27.3206 39.1803 29.46 40.1252 31.6676C40.6129 32.8047 40.9618 34.0052 41.3139 35.1943C41.5836 36.1073 41.5433 36.1186 42.6642 36.2518C43.6736 32.4961 42.1554 29.5802 39.8813 26.8316C39.9976 26.8917 40.1397 26.9274 40.2253 27.0184C42.6254 29.5753 44.1905 32.4701 43.7754 36.1316C43.7269 36.5686 43.8787 36.7359 44.2309 36.9292C44.8882 37.2882 45.573 37.6489 46.1206 38.1492C46.5098 38.5033 46.7424 39.067 46.9427 39.5787C47.0218 39.785 46.8264 40.1002 46.6826 40.3406C46.0043 38.5066 43.8852 37.0332 41.8921 37.0446C40.9909 37.0495 40.4756 37.4556 40.1914 38.3555C40.1219 38.5764 40.0509 38.8883 39.8861 38.9712C38.1773 39.837 37.872 41.4469 37.6362 43.1136C37.3891 44.8745 37.1307 46.6338 36.8448 48.3882C36.8012 48.6562 36.6461 48.9941 36.4346 49.1338Z" fill="#02F4BF"/>
<path d="M44.691 40.2886C44.1289 41.0667 43.3488 41.593 42.4007 41.6125C41.9695 41.6206 41.3024 41.3185 41.1409 40.9709C40.8082 40.2496 40.6289 39.4065 40.6015 38.6056C40.5207 36.2697 45.9686 38.5196 44.691 40.2886Z" fill="#02F4BF"/>
<path d="M50.6609 49.7104C50.0278 50.1132 49.3494 50.4511 48.6711 50.7728C47.1464 51.4973 45.7816 52.4135 44.6687 53.7179C43.7804 54.7592 42.6692 55.5129 41.3286 55.8866C38.515 56.6696 36.2668 54.691 36.6964 51.7929C36.7755 51.2585 36.8644 50.7159 37.0388 50.2107C37.8205 47.9413 38.1323 45.5972 38.2905 43.2142C38.339 42.4994 38.5183 41.7635 38.7912 41.1007C39.0109 40.5647 39.4615 40.1261 39.8863 39.5364C40.198 40.3973 40.345 41.0098 40.6293 41.5507C41.1768 42.5952 42.0861 43.0241 43.1941 42.657C43.9936 42.3938 44.7834 41.9877 45.4618 41.4857C46.6101 40.6378 48.235 40.9529 48.8423 42.2525C48.8665 42.3012 48.902 42.3467 48.9133 42.3987C49.2832 44.2506 50.0439 45.8945 51.2085 47.4053C51.9337 48.3458 51.6785 49.0638 50.6609 49.7104Z" fill="#02F4BF"/>
</g>
<defs>
<clipPath id="clip0_3418_3135">
<rect width="46.5161" height="56" fill="white" transform="translate(7 2)"/>
</clipPath>
</defs>
</svg>
