<svg width="60" height="60" viewBox="0 0 60 60" fill="none" xmlns="http://www.w3.org/2000/svg">
<mask id="mask0_3418_3124" style="mask-type:luminance" maskUnits="userSpaceOnUse" x="2" y="2" width="56" height="56">
<path d="M58 2H2V58H58V2Z" fill="white"/>
</mask>
<g mask="url(#mask0_3418_3124)">
<path fill-rule="evenodd" clip-rule="evenodd" d="M8.08668 16.6082H29.9995V14.1734H16.6082V8.08668C16.6082 8.08668 16.6082 2 29.9995 2C43.3908 2 43.3908 8.08668 43.3908 8.08668C43.3908 8.08668 43.4915 18.9265 43.4412 22.6366C43.3908 26.3477 40.9559 28.7816 37.2962 28.7816H22.6959C17.8262 28.7816 14.1743 32.4334 14.1743 37.3031V43.3898H8.08767C8.08767 43.3898 2 43.3908 2 29.9995C2 16.6082 8.08668 16.6082 8.08668 16.6082ZM25.1298 8.08767C25.1298 9.43203 24.0393 10.5225 22.6949 10.5225C21.3505 10.5225 20.26 9.43203 20.26 8.08767C20.26 6.7433 21.3505 5.6528 22.6949 5.6528C24.0393 5.6528 25.1298 6.7433 25.1298 8.08767Z" fill="#02F4BF"/>
<path fill-rule="evenodd" clip-rule="evenodd" d="M51.9145 43.3907H30.0016V45.8256H43.3929V51.9123C43.3929 51.9123 43.3929 57.9989 30.0016 57.9989C16.6104 57.9989 16.6104 51.9123 16.6104 51.9123V37.304C16.6104 33.6512 19.0452 31.2174 22.697 31.2174H37.3062C42.176 31.2174 45.8278 27.5655 45.8278 22.6958V16.6091H51.9145C51.9145 16.6091 58.0011 16.6091 58.0011 30.0004C58.0011 43.3917 51.9145 43.3917 51.9145 43.3917V43.3907ZM39.7391 51.9132C39.7391 53.2576 38.6486 54.3481 37.3043 54.3481C35.9599 54.3481 34.8694 53.2576 34.8694 51.9132C34.8694 50.5689 35.9599 49.4784 37.3043 49.4784C38.6486 49.4784 39.7391 50.5689 39.7391 51.9132Z" fill="#02F4BF"/>
</g>
</svg>
