<svg width="30" height="30" viewBox="0 0 30 30" fill="none" xmlns="http://www.w3.org/2000/svg">
<path d="M15 0.259277C6.7125 0.259277 2.18932e-06 6.97178 2.18932e-06 15.2593C-0.00169914 18.4082 0.988222 21.4777 2.82933 24.0323C4.67043 26.5869 7.26922 28.4969 10.257 29.4913C11.007 29.6218 11.2875 29.1718 11.2875 28.7773C11.2875 28.4218 11.268 27.2413 11.268 25.9843C7.5 26.6788 6.525 25.0663 6.225 24.2218C6.0555 23.7898 5.325 22.4593 4.6875 22.1023C4.1625 21.8218 3.4125 21.1273 4.668 21.1093C5.85 21.0898 6.693 22.1968 6.975 22.6468C8.325 24.9148 10.482 24.2773 11.343 23.8843C11.475 22.9093 11.868 22.2538 12.3 21.8788C8.9625 21.5038 5.475 20.2093 5.475 14.4718C5.475 12.8398 6.0555 11.4913 7.0125 10.4398C6.8625 10.0648 6.3375 8.52728 7.1625 6.46478C7.1625 6.46478 8.418 6.07178 11.2875 8.00378C12.5086 7.66487 13.7703 7.49429 15.0375 7.49678C16.3125 7.49678 17.5875 7.66478 18.7875 8.00228C21.6555 6.05228 22.9125 6.46628 22.9125 6.46628C23.7375 8.52878 23.2125 10.0663 23.0625 10.4413C24.018 11.4913 24.6 12.8218 24.6 14.4718C24.6 20.2288 21.0945 21.5038 17.757 21.8788C18.3 22.3468 18.7695 23.2468 18.7695 24.6538C18.7695 26.6593 18.75 28.2718 18.75 28.7788C18.75 29.1718 19.032 29.6398 19.782 29.4898C22.7595 28.4845 25.3469 26.5708 27.1799 24.018C29.0128 21.4652 29.9991 18.4019 30 15.2593C30 6.97178 23.2875 0.259277 15 0.259277Z" fill="#02F4BF"/>
</svg>
